<svg width="48" height="48" viewBox="0 0 48 48" fill="none" xmlns="http://www.w3.org/2000/svg">
  <!-- The Sentinel Mark — Icon Only -->
  <g transform="translate(6, 0)">
    <!-- Tower body -->
    <rect x="8" y="14" width="20" height="26" rx="3" fill="#1E293B"/>
    <!-- Beacon housing -->
    <rect x="11" y="6" width="14" height="10" rx="2" fill="#1E293B"/>
    <!-- Beacon light -->
    <circle cx="18" cy="11" r="4" fill="#C47A5A"/>
    <circle cx="18" cy="11" r="2.5" fill="#FDF5F0" opacity="0.9"/>
    <!-- Light ray left -->
    <path d="M13 9L4 5L5 7L13 10Z" fill="#C47A5A" opacity="0.25"/>
    <!-- Light ray right -->
    <path d="M23 9L32 5L31 7L23 10Z" fill="#C47A5A" opacity="0.25"/>
    <!-- Windows -->
    <rect x="13" y="18" width="4" height="5" rx="1" fill="#C47A5A" opacity="0.3"/>
    <rect x="19" y="18" width="4" height="5" rx="1" fill="#C47A5A" opacity="0.3"/>
    <rect x="13" y="27" width="4" height="5" rx="1" fill="#C47A5A" opacity="0.3"/>
    <rect x="19" y="27" width="4" height="5" rx="1" fill="#C47A5A" opacity="0.3"/>
    <!-- Base -->
    <rect x="5" y="38" width="26" height="4" rx="2" fill="#1E293B"/>
  </g>
</svg>